<?xml version="1.0" standalone="no"?><!DOCTYPE svg PUBLIC "-//W3C//DTD SVG 1.1//EN" "http://www.w3.org/Graphics/SVG/1.1/DTD/svg11.dtd"><svg class="icon" width="200px" height="117.57px" viewBox="0 0 1742 1024" version="1.1" xmlns="http://www.w3.org/2000/svg"><path fill="#333333" d="M396.158 242.316c0-12.103-11.88-21.839-26.659-21.839H114.877c-14.683 0-26.658 9.736-26.658 21.84s11.964 21.838 26.658 21.838H369.52c14.759 0 26.659-9.779 26.659-21.839zM243.937 400.732c0-12.06-11.88-21.838-26.659-21.838H114.91c-14.715 0-26.658 9.778-26.658 21.838s11.921 21.839 26.658 21.839h102.37c14.715 0 26.658-9.736 26.658-21.839z m-129.028 136.62c-14.715 0-26.658 9.79-26.658 21.84s11.921 21.838 26.658 21.838h72.768c14.726 0 26.658-9.79 26.658-21.839s-11.921-21.839-26.658-21.839z m0 0M334.086 785.896H101.857c-26.818 0-48.614-25.24-48.614-56.303v-619.76c0-31.094 21.838-56.345 48.614-56.345h488.791c26.776 0 48.572 25.24 48.572 56.345v71.893a26.659 26.659 0 0 0 53.317 0v-71.893c0-60.45-45.735-109.63-101.857-109.63H101.857C45.64 0.213 0 49.393 0 109.833v619.792c0 60.408 45.64 109.588 101.857 109.588h232.186a26.659 26.659 0 0 0 0-53.317z m0 0M862.47 755.921l-45.65-61.453a14.438 14.438 0 0 1-2.858-8.606V491.894c0-94.585-65.495-173.697-153.18-193.755v-0.629a43.768 43.768 0 1 0-87.537 0v0.597c-87.717 20.08-153.18 99.17-153.18 193.766V685.85a14.449 14.449 0 0 1-2.858 8.606l-45.693 61.453a14.438 14.438 0 0 0 11.58 23.044H529.44a87.536 87.536 0 0 0 175.073 0h146.345a14.438 14.438 0 0 0 11.612-23.044z m-245.504 66.817a43.816 43.816 0 0 1-43.72-43.72h87.536a43.816 43.816 0 0 1-43.72 43.72z m-175.5-87.536l10.92-14.641a58.649 58.649 0 0 0 11.474-34.71V491.894c0-85.478 68.672-154.93 153.138-154.93s153.18 69.527 153.18 154.973V685.85a58.649 58.649 0 0 0 11.453 34.72l10.866 14.62z m0 0M559.49 415.096a15.046 15.046 0 0 0-20.634 4.49 198.735 198.735 0 0 0-31.276 107.316v147.572a16.955 16.955 0 0 0 16.955 16.954h9.874a16.955 16.955 0 0 0 16.955-16.954V526.902a155.174 155.174 0 0 1 24.28-83.559 15.003 15.003 0 0 0-4.265-20.452q-5.864-3.988-11.847-7.795z m0 0" /></svg>