<?xml version="1.0" standalone="no"?><!DOCTYPE svg PUBLIC "-//W3C//DTD SVG 1.1//EN" "http://www.w3.org/Graphics/SVG/1.1/DTD/svg11.dtd"><svg class="icon" width="200px" height="200.00px" viewBox="0 0 1024 1024" version="1.1" xmlns="http://www.w3.org/2000/svg"><path fill="#333333" d="M582.087509 761.697249C602.719139 723.389642 616.366002 670.12141 610.567587 596.588622 610.567587 596.588622 735.636077 685.032712 621.93 850.755739 621.93 850.755739 802.86706 896.891811 853.074944 681.32428 898.483541 486.093328 769.723299 371.889586 674.927197 360.844055 674.927197 360.844055 746.998489 423.448747 712.829238 493.430443 712.829238 493.470317 565.076945 408.774532 568.891764 217.212121 568.891764 217.212121 540.492831 234.768679 514.448291 268.298333L514.448291 587.853576C557.828655 634.212848 582.094352 695.016727 582.094352 759.823515 582.094352 760.448621 582.092071 761.073199 582.087509 761.697249ZM436.875962 621.791697 436.875962 184.645461C436.875962 125.607827 388.845987 77.575758 329.807313 77.575758 270.768624 77.575758 222.738649 125.606788 222.738649 184.645461L222.738649 621.793792C180.218802 654.810469 155.151515 705.600745 155.151515 759.821746 155.151515 856.127193 233.501851 934.477545 329.808353 934.477545 426.135847 934.477545 504.505065 856.127193 504.505065 759.821746 504.504025 705.609138 479.419951 654.814658 436.875962 621.791697ZM329.807313 892.511635C256.641862 892.511635 197.116369 832.987198 197.116369 759.821746 197.116369 715.729222 218.938632 674.617313 255.491987 649.847994 261.252856 645.944118 264.703504 639.437296 264.703504 632.477262L264.703504 184.645461C264.703504 148.747838 293.90862 119.541667 329.806258 119.541667 365.703897 119.541667 394.909013 148.746783 394.909013 184.645461L394.909013 632.478301C394.909013 639.439407 398.360716 645.946213 404.122624 649.850089 440.699066 674.629911 462.537076 715.74075 462.537076 759.822786 462.538116 832.987198 402.994797 892.511635 329.807313 892.511635ZM354.481773 192.737249C354.481773 180.664351 344.592027 170.666667 332.392401 170.666667 320.107722 170.666667 310.30303 180.548003 310.30303 192.737249L310.30303 670.525145C274.455102 680.890275 248.242424 713.955126 248.242424 753.142272 248.242424 800.633654 286.741799 839.133029 334.233181 839.133029 381.724563 839.133029 420.223938 800.633654 420.223938 753.142272 420.223938 712.625509 392.202302 678.653564 354.481773 669.549134L354.481773 192.737249Z" /></svg>