<?xml version="1.0" standalone="no"?><!DOCTYPE svg PUBLIC "-//W3C//DTD SVG 1.1//EN" "http://www.w3.org/Graphics/SVG/1.1/DTD/svg11.dtd"><svg class="icon" width="200px" height="200.00px" viewBox="0 0 1024 1024" version="1.1" xmlns="http://www.w3.org/2000/svg"><path fill="#333333" d="M857.6 96H166.4C83.2 96 19.2 160 19.2 243.2V640c0 83.2 64 147.2 147.2 147.2h512c12.8 0 25.6-12.8 25.6-25.6s-12.8-25.6-25.6-25.6h-512c-57.6 0-102.4-44.8-102.4-96V550.4h140.8l70.4 115.2c6.4 12.8 19.2 19.2 32 19.2s25.6-6.4 32-19.2l192-313.6h12.8l108.8 198.4H960V640c0 51.2-38.4 96-89.6 96-12.8 0-25.6 12.8-19.2 25.6 0 12.8 12.8 25.6 25.6 19.2 76.8-6.4 134.4-70.4 134.4-147.2V243.2c-6.4-83.2-70.4-147.2-153.6-147.2z m-179.2 403.2L582.4 320c6.4-12.8 12.8-25.6 12.8-38.4 0-38.4-32-70.4-70.4-70.4-38.4 0-70.4 32-70.4 70.4 0 19.2 6.4 38.4 19.2 51.2L307.2 614.4 230.4 499.2H64v-256c0-57.6 44.8-102.4 102.4-102.4h691.2c57.6 0 102.4 44.8 102.4 102.4v256h-281.6zM678.4 870.4H345.6c-12.8 0-25.6 12.8-25.6 25.6s12.8 25.6 25.6 25.6h332.8c12.8 0 25.6-12.8 25.6-25.6s-12.8-25.6-25.6-25.6z" /></svg>