<?xml version="1.0" standalone="no"?><!DOCTYPE svg PUBLIC "-//W3C//DTD SVG 1.1//EN" "http://www.w3.org/Graphics/SVG/1.1/DTD/svg11.dtd"><svg class="icon" width="200px" height="200.00px" viewBox="0 0 1024 1024" version="1.1" xmlns="http://www.w3.org/2000/svg"><path fill="#333333" d="M153.6 68.266667v392.533333H102.4V68.266667c0-37.546667 30.72-68.266667 68.266667-68.266667h446.0544c31.300267 0 61.320533 12.4416 83.438933 34.56l186.88 186.88A118.084267 118.084267 0 0 1 921.6 304.878933V460.8h-51.2v-155.921067c0-5.034667-0.682667-9.9328-1.774933-14.7456H631.466667V52.974933A67.157333 67.157333 0 0 0 616.721067 51.2H170.666667c-9.250133 0-17.066667 7.816533-17.066667 17.066667z m529.066667 21.213866V238.933333h149.469866L682.666667 89.480533zM870.4 955.733333v-51.2h51.2v51.2c0 37.546667-30.72 68.266667-68.266667 68.266667H170.666667c-37.546667 0-68.266667-30.72-68.266667-68.266667v-51.2h51.2v51.2c0 9.250133 7.816533 17.066667 17.066667 17.066667h682.666666c9.250133 0 17.066667-7.816533 17.066667-17.066667zM0 853.333333V512h1024v341.333333H0z m799.1808-85.162666v-92.552534h-93.7984v30.651734h57.924267v45.056c-7.338667 4.3008-15.0016 7.662933-23.586134 10.120533a113.629867 113.629867 0 0 1-29.422933 3.669333c-26.6752 0-46.2848-7.338667-58.845867-22.0672-11.656533-13.789867-17.493333-33.706667-17.493333-59.460266 0-26.965333 6.4512-47.5136 19.626667-62.225067 11.963733-14.097067 28.194133-20.8384 48.725333-20.8384 16.571733 0 30.0544 3.3792 40.174933 10.410667 9.796267 7.0656 16.554667 17.493333 19.626667 31.573333h36.1472c-3.976533-24.507733-13.789867-42.5984-29.422933-54.852267-16.213333-12.561067-38.314667-18.705067-66.525867-18.705066-32.477867 0-58.231467 11.042133-77.226667 33.723733-18.090667 21.1456-26.965333 48.128-26.965333 80.896 0 32.512 8.874667 59.170133 26.965333 79.701333 19.319467 22.084267 46.2848 33.109333 81.237334 33.109334 19.626667 0 37.0688-2.440533 53.009066-7.355734 15.018667-4.898133 28.194133-11.639467 39.850667-20.8384z m-302.523733-60.074667c53.333333 0 80.008533-22.664533 80.008533-67.720533 0-44.7488-26.6752-67.1232-79.36-67.1232h-90.743467v218.845866h35.857067V708.096h54.237867z m-133.000534 13.192533v-148.036266h-35.84v146.807466c0 15.633067-2.781867 26.965333-8.277333 34.030934-5.546667 7.048533-14.421333 10.717867-26.368 10.717866-21.777067 0-32.512-12.561067-32.512-37.717333v-6.724267h-35.84v7.048534c0 21.469867 5.819733 38.314667 17.4592 50.5856 11.349333 12.253867 28.194133 18.3808 50.261333 18.3808 25.463467 0 43.861333-6.434133 55.483734-19.3024 10.427733-12.288 15.633067-30.651733 15.633066-55.808z m165.512534-108.817066c7.338667 5.512533 11.332267 14.711467 11.332266 27.886933 0 13.192533-3.6864 22.698667-11.025066 28.5184-7.3728 5.512533-19.012267 8.584533-34.935467 8.584533h-52.1216v-73.557333h52.1216c15.633067 0 27.255467 2.747733 34.628267 8.567467z m44.458666-168.8576c2.304 2.8672 2.304 7.458133 0.580267 11.451733a12.8 12.8 0 0 1-10.308267 5.7344h-333.312a10.6496 10.6496 0 0 1-9.728-5.7344 10.410667 10.410667 0 0 1 0-11.434667l117.9648-190.72c2.286933-2.8672 5.717333-5.1712 9.728-5.1712 4.010667 0 7.458133 1.7408 9.745067 5.1712l85.896533 139.1616 38.4-59.562666c2.269867-2.8672 5.700267-5.154133 9.728-5.154134a11.264 11.264 0 0 1 9.728 5.154134l71.5776 111.104zM448.221867 247.466667a42.666667 42.666667 0 1 1 85.316266 0 42.666667 42.666667 0 0 1-85.333333 0z" /></svg>