<?xml version="1.0" standalone="no"?><!DOCTYPE svg PUBLIC "-//W3C//DTD SVG 1.1//EN" "http://www.w3.org/Graphics/SVG/1.1/DTD/svg11.dtd"><svg class="icon" width="200px" height="200.00px" viewBox="0 0 1024 1024" version="1.1" xmlns="http://www.w3.org/2000/svg"><path fill="#333333" d="M682.666667 89.480533L832.136533 238.933333H682.666667V89.480533zM153.6 68.266667v392.533333H102.4V68.266667c0-37.546667 30.72-68.266667 68.266667-68.266667h446.0544c31.300267 0 61.320533 12.4416 83.438933 34.56l186.88 186.88A118.084267 118.084267 0 0 1 921.6 304.878933V460.8h-51.2v-155.921067c0-5.034667-0.682667-9.9328-1.774933-14.7456H631.466667V52.974933A67.157333 67.157333 0 0 0 616.721067 51.2H170.666667c-9.250133 0-17.066667 7.816533-17.066667 17.066667z m716.8 887.466666v-51.2h51.2v51.2c0 37.546667-30.72 68.266667-68.266667 68.266667H170.666667c-37.546667 0-68.266667-30.72-68.266667-68.266667v-51.2h51.2v51.2c0 9.250133 7.816533 17.066667 17.066667 17.066667h682.666666c9.250133 0 17.066667-7.816533 17.066667-17.066667zM0 853.333333V512h1024v341.333333H0z m822.664533-84.5824v-93.184h-94.4128v30.856534h58.3168v45.346133a101.034667 101.034667 0 0 1-23.773866 10.1888 114.244267 114.244267 0 0 1-29.610667 3.703467c-26.845867 0-46.592-7.406933-59.255467-22.2208-11.707733-13.8752-17.578667-33.9456-17.578666-59.8528 0-27.136 6.485333-47.8208 19.746133-62.634667 12.032-14.199467 28.381867-20.992 49.066667-20.992 16.657067 0 30.242133 3.413333 40.413866 10.496 9.864533 7.099733 16.674133 17.578667 19.746134 31.778133h36.4032c-3.9936-24.6784-13.8752-42.888533-29.610667-55.227733-16.349867-12.663467-38.570667-18.824533-66.952533-18.824533-32.7168 0-58.624 11.1104-77.7728 33.962666-18.193067 21.265067-27.136 48.418133-27.136 81.442134 0 32.699733 8.942933 59.562667 27.136 80.213333 19.456 22.2208 46.609067 33.3312 81.7664 33.3312 19.7632 0 37.341867-2.4576 53.384533-7.406933 15.121067-4.932267 28.398933-11.7248 40.123733-20.974934z m-236.458666 24.064V572.501333h-36.4032v158.907734h-1.245867l-108.919467-158.890667h-36.113066v220.296533h36.113066v-161.0752h1.2288l110.165334 161.0752h35.1744zM292.0448 708.266667c53.691733 0 80.554667-22.8352 80.554667-68.1984 0-45.038933-26.862933-67.566933-79.940267-67.566934h-91.306667v220.330667h36.078934V708.266667h54.613333z m32.7168-96.256c7.406933 5.546667 11.400533 14.813867 11.400533 28.074666s-3.703467 22.8352-11.093333 28.706134c-7.406933 5.546667-19.1488 8.635733-35.157333 8.635733h-52.48v-74.069333h52.462933c15.735467 0 27.4432 2.781867 34.8672 8.6528zM238.933333 307.2v-102.4h102.4v102.4h-102.4z m204.8 0v-102.4h102.4v102.4h-102.4z m-102.4 102.4v-102.4h102.4v102.4h-102.4z" /></svg>