<?xml version="1.0" standalone="no"?><!DOCTYPE svg PUBLIC "-//W3C//DTD SVG 1.1//EN" "http://www.w3.org/Graphics/SVG/1.1/DTD/svg11.dtd"><svg class="icon" width="200px" height="200.00px" viewBox="0 0 1024 1024" version="1.1" xmlns="http://www.w3.org/2000/svg"><path fill="#333333" d="M408.576 117.76c1.024 0 1.024 0 0 0 1.024 0 1.024 0 0 0l1.024 29.696H307.2V117.76h101.376m0-40.96H308.224c-23.552 0-41.984 18.432-41.984 40.96v29.696c0 22.528 18.432 40.96 41.984 40.96h100.352c22.528 0 41.984-18.432 41.984-40.96V117.76c0-22.528-18.432-40.96-41.984-40.96z m58.368 174.08c10.24 4.096 32.768 21.504 46.08 31.744-44.032 79.872-84.992 187.392-68.608 290.816 18.432 122.88 117.76 207.872 241.664 207.872 25.6 0 56.32-8.192 82.944-18.432v121.856c0 17.408-3.072 21.504-22.528 21.504H236.544c-19.456 0-21.504-3.072-21.504-21.504V435.2c0-18.432 5.12-50.176 11.264-67.584l36.864-104.448c2.048-5.12 12.288-12.288 18.432-12.288h185.344m3.072-40.96H281.6c-23.552 0-49.152 17.408-56.32 39.936l-36.864 104.448c-8.192 21.504-14.336 58.368-14.336 81.92V885.76c0 40.96 21.504 62.464 62.464 62.464h508.928c40.96 0 63.488-21.504 63.488-62.464V702.464c-29.696 15.36-88.064 38.912-123.904 38.912-102.4 0-185.344-71.68-200.704-173.056-16.384-104.448 32.768-215.04 81.92-295.936-16.384-10.24-73.728-62.464-96.256-62.464zM681.984 244.736c62.464 82.944 153.6 234.496 120.832 331.776-21.504 63.488-74.752 87.04-117.76 87.04-48.128 0-107.52-27.648-119.808-106.496-17.408-112.64 68.608-247.808 116.736-312.32M680.96 179.2s-183.296 207.872-157.696 384c14.336 93.184 87.04 141.312 160.768 141.312 65.536 0 131.072-37.888 156.672-114.688C896 427.008 680.96 179.2 680.96 179.2zM765.952 491.52c18.432 24.576 31.744 108.544-47.104 122.88 40.96-64.512 44.032-72.704 47.104-122.88" /></svg>