<?xml version="1.0" standalone="no"?><!DOCTYPE svg PUBLIC "-//W3C//DTD SVG 1.1//EN" "http://www.w3.org/Graphics/SVG/1.1/DTD/svg11.dtd"><svg class="icon" width="200px" height="200.00px" viewBox="0 0 1024 1024" version="1.1" xmlns="http://www.w3.org/2000/svg"><path fill="#333333" d="M946.688 684.544c-17.92-17.92-38.912-31.744-62.464-41.472-22.528-9.216-46.592-13.824-70.656-13.824h-9.216l-130.56-130.56 105.984-108.032 14.848 14.848 41.472-41.472 140.8-140.8 41.472-41.472-41.472-41.472L916.48 79.872l-41.472-41.472-41.472 41.472-140.8 140.8-41.472 41.472 15.36 15.36L609.28 334.336c1.536-20.992 1.024-42.496-2.048-63.488-4.096-32.256-13.824-62.976-27.648-92.16-14.848-30.208-34.304-57.344-57.856-81.408-28.672-28.672-62.464-51.2-99.84-66.56-36.352-14.848-74.24-22.016-113.664-22.016-41.984 0.512-82.944 9.216-120.832 25.6l-79.36 34.304 60.928 61.44 167.424 167.424-10.752 32.768-32.768 10.752-167.424-167.936-60.928-60.928-34.304 79.36C6.144 246.272-0.512 306.688 10.24 366.08c10.752 60.928 39.936 115.712 83.456 159.744 7.168 7.168 14.848 14.336 23.04 20.48 2.56 2.048 5.12 4.096 6.656 5.12l0.512 0.512 1.024 0.512c4.608 3.584 9.728 7.68 15.872 11.776 30.208 19.968 64 34.304 99.328 42.496L68.608 778.24l-27.136 27.136 13.824 35.84 36.352 93.696 9.728 24.576 25.088 9.216 90.112 33.28 35.328 12.8 26.624-26.624 260.608-258.56 86.528 86.528c-0.512 50.176 18.944 98.816 55.296 134.656 17.92 17.92 38.912 31.744 62.464 41.472 22.528 9.216 46.592 13.824 71.168 13.824 24.576 0 48.128-4.608 71.168-13.824 23.552-9.728 44.544-23.552 62.464-41.472s31.744-38.912 41.472-62.464c9.216-22.528 13.824-46.592 13.824-71.168 0-24.576-4.608-48.128-13.824-71.168-10.752-22.528-24.576-43.52-43.008-61.44z m-133.12 263.168c-33.28 0-66.56-12.8-91.648-37.888-31.232-31.232-43.52-74.752-35.84-115.2l-147.456-147.456L419.84 527.872c-10.24 5.12-20.48 9.728-31.232 13.312-1.024 0.512-2.56 1.024-3.584 1.024-0.512 0-1.536 0.512-2.048 0.512-1.024 0.512-2.048 0.512-3.072 1.024-1.024 0.512-2.048 0.512-3.072 1.024-1.024 0-1.536 0.512-2.56 0.512l-6.144 1.536c-3.584 1.024-7.168 1.536-10.752 2.56-4.608 1.024-9.728 2.048-14.336 2.56-3.584 0.512-7.68 1.024-11.264 1.536-6.144 0.512-12.288 1.024-17.92 1.024-2.048 0-4.096 0.512-6.144 0.512-46.592 0-93.184-13.312-134.144-39.936-4.608-3.072-9.216-6.656-13.824-10.24-2.048-1.536-4.096-2.56-5.632-4.096-6.144-5.12-12.8-10.752-18.432-16.896C62.464 411.136 45.568 304.128 83.968 215.04l193.024 193.024 95.744-31.232 31.232-95.744-193.536-193.024c30.72-13.312 64-19.968 97.28-19.968 62.464 0 124.416 23.552 172.032 71.168 78.336 78.336 92.16 197.12 40.96 289.792l38.4 38.4 0.512 0.512 30.208 30.208 194.048 194.048c9.728-2.56 19.968-3.584 30.208-3.584 33.28 0 66.048 12.8 91.648 37.888 50.688 50.688 50.688 132.608 0 183.296-25.6 25.088-58.88 37.888-92.16 37.888zM749.056 277.504l-15.36-15.36 140.8-140.8 60.416 60.416L794.112 322.56l-15.36-15.36-176.128 179.2-1.536-1.536-30.208-30.208 178.176-177.152z m-512 669.184l-90.112-33.28-36.352-93.696L363.52 566.784c3.072-0.512 5.632-1.024 8.704-2.048 15.36-4.096 30.208-9.216 44.032-15.36l110.08 110.08-289.28 287.232z m167.936-305.152l12.288 12.288-198.144 198.144-12.288-12.288 198.144-198.144z m443.392 136.192c-9.216-6.144-20.48-9.728-32.768-9.728-8.192 0-15.872 1.536-22.528 4.608-10.24 4.608-19.456 11.776-25.6 20.992-6.144 9.216-9.728 20.48-9.728 32.768 0 8.192 1.536 15.872 4.608 22.528 4.608 10.24 11.776 19.456 20.992 25.6 9.216 6.144 20.48 9.728 32.768 9.728 8.192 0 15.872-1.536 22.528-4.608 10.24-4.608 19.456-11.776 25.6-20.992 6.144-9.216 9.728-20.48 9.728-32.768 0-8.192-1.536-15.872-4.608-22.528-4.608-10.752-11.776-19.456-20.992-25.6z m4.608 64c-3.072 7.168-8.192 13.312-14.848 17.92-6.656 4.608-14.336 7.168-22.528 7.168-5.632 0-10.752-1.024-15.872-3.072-7.168-3.072-13.312-8.192-17.92-14.848-4.608-6.656-7.168-14.336-7.168-22.528 0-5.632 1.024-10.752 3.072-15.872 3.072-7.168 8.192-13.312 14.848-17.92 6.656-4.608 14.336-7.168 22.528-7.168 5.632 0 10.752 1.024 15.872 3.072 7.168 3.072 13.312 8.192 17.92 14.848 4.608 6.656 7.168 14.336 7.168 22.528 0.512 5.632-1.024 10.752-3.072 15.872z" /></svg>